<?xml version="1.0" standalone="no"?>
<!DOCTYPE svg PUBLIC "-//W3C//DTD SVG 20010904//EN"
 "http://www.w3.org/TR/2001/REC-SVG-20010904/DTD/svg10.dtd">
<svg version="1.0" xmlns="http://www.w3.org/2000/svg"
 width="300.000000pt" height="300.000000pt" viewBox="0 0 300.000000 300.000000"
 preserveAspectRatio="xMidYMid meet">

<g transform="translate(0.000000,300.000000) scale(0.100000,-0.100000)"
fill="#000000" stroke="none">
<path d="M1290 2985 c-642 -94 -1147 -580 -1266 -1220 -28 -148 -26 -413 5
-555 98 -459 377 -830 781 -1039 132 -68 249 -110 400 -142 142 -31 407 -33
555 -5 610 114 1084 579 1206 1185 132 655 -199 1331 -798 1630 -271 137 -591
189 -883 146z m32 -862 c111 -52 176 -146 185 -269 10 -125 -29 -208 -118
-252 l-41 -21 43 -11 c62 -17 120 -80 144 -155 26 -84 24 -211 -6 -289 -40
-108 -147 -192 -278 -216 -29 -5 -208 -10 -397 -10 l-344 0 0 626 0 625 383
-3 c368 -3 384 -4 429 -25z m1006 -120 l-3 -78 -250 0 -250 0 -3 78 -3 77 256
0 256 0 -3 -77z m-100 -187 c183 -49 292 -214 292 -443 l0 -83 -326 0 -327 0
7 -41 c19 -121 121 -191 254 -174 84 10 130 38 153 91 l20 44 106 0 106 0 -6
-55 c-20 -190 -213 -299 -487 -274 -135 13 -223 52 -297 132 -113 123 -149
323 -89 501 55 163 152 261 296 300 70 19 230 20 298 2z"/>
<path d="M790 1790 l0 -140 194 0 c179 0 195 2 219 20 55 44 57 190 2 238 -25
21 -33 22 -221 22 l-194 0 0 -140z"/>
<path d="M794 1447 c-2 -7 -3 -82 -2 -167 l3 -155 202 0 c188 0 203 1 230 21
64 47 82 151 41 234 -37 73 -60 80 -281 80 -144 0 -189 -3 -193 -13z"/>
<path d="M2017 1640 c-62 -19 -118 -80 -141 -157 l-7 -23 205 0 206 0 0 23
c-1 30 -33 98 -56 119 -48 42 -138 59 -207 38z"/>
</g>
</svg>
