<?xml version="1.0" standalone="no"?>
<!DOCTYPE svg PUBLIC "-//W3C//DTD SVG 20010904//EN"
 "http://www.w3.org/TR/2001/REC-SVG-20010904/DTD/svg10.dtd">
<svg version="1.0" xmlns="http://www.w3.org/2000/svg"
 width="1000.000000pt" height="1004.000000pt" viewBox="0 0 1000.000000 1004.000000"
 preserveAspectRatio="xMidYMid meet">

<g transform="translate(0.000000,1004.000000) scale(0.100000,-0.100000)"
fill="#000000" stroke="none">
<path d="M650 10015 c-107 -18 -155 -32 -235 -69 -180 -84 -312 -232 -382
-431 l-28 -80 0 -4415 0 -4415 27 -80 c39 -114 92 -199 178 -285 120 -120 237
-179 419 -211 103 -19 223 -19 4411 -16 3978 2 4310 4 4372 19 158 39 271 102
378 208 86 86 139 171 178 285 l27 80 0 4415 0 4415 -27 80 c-86 253 -281 424
-559 491 -71 18 -264 19 -4379 20 -3462 2 -4320 0 -4380 -11z m1830 -1706
c288 -46 524 -241 615 -508 135 -399 -58 -822 -443 -969 -117 -45 -217 -62
-366 -62 -172 1 -276 23 -415 91 -91 44 -116 63 -190 138 -134 135 -196 262
-222 456 -20 155 19 348 98 485 53 90 180 215 273 267 82 46 198 88 282 102
75 12 291 13 368 0z m4470 -2064 c392 -47 697 -187 945 -434 321 -317 496
-766 535 -1366 5 -83 10 -737 10 -1472 l0 -1323 -750 0 -749 0 -4 1313 c-3
1433 -1 1369 -62 1580 -81 281 -258 460 -505 513 -108 23 -294 21 -391 -5
-146 -38 -285 -123 -391 -240 -71 -79 -152 -216 -186 -316 l-27 -80 -5 -1380
-5 -1380 -748 -3 -747 -2 0 2250 1 2250 750 0 750 0 -3 -310 c-2 -171 -1 -310
2 -310 3 0 18 21 34 46 46 72 150 198 232 278 225 220 522 356 864 395 118 13
324 12 450 -4z m-3910 -2345 l0 -2250 -750 0 -750 0 0 2250 0 2250 750 0 750
0 0 -2250z"/>
</g>
</svg>
